PathFileType	4	(x/y/z)	S09_P20_T26
DataRate	CameraRate	NumFrames	NumMarkers	Units	OrigDataRate	OrigDataStartFrame	OrigNumFrames
240	240	8	51	mm	240	345	394
Frame#	Time	Sternum			R.Acromium			L.Acromium			Top.Head			R.ASIS			L.ASIS			R.PSIS			L.PSIS			R.Great.Tro			L.Great.Tro			R.Iliac.Crest			L.Iliac.Crest			V.Sacral			R.Thigh.Upper.Post			R.Thigh.Lower.Ant			R.Thigh.Lower.Post			R.Thigh.Upper.Ant			R.Knee.Lat			R.Knee.Med			R.Shank.Upper.Post			R.Shank.Lower.Ant			R.Shank.Lower.Post			R.Shank.Upper.Ant			R.Ankle.Lat			R.Ankle.Med			R.Heel.Upper			R.Heel.Med			R.Heel.Lat			R.Toe.Lat			R.Toe.Med			R.Toe.Tip			L.Thigh.Upper.Post			L.Thigh.Lower.Ant			L.Thigh.Lower.Post			L.Thigh.Upper.Ant			L.Knee.Lat			L.Knee.Med			L.Shank.Upper.Post			L.Shank.Lower.Ant			L.Shank.Lower.Post			L.Shank.Upper.Ant			L.Ankle.Lat			L.Ankle.Med			L.Heel.Upper			L.Heel.Med			L.Heel.Lat			L.Toe.Lat			L.Toe.Med			L.Toe.Tip			Cervical.Spine			Back			
		X1	Y1	Z1	X2	Y2	Z2	X3	Y3	Z3	X4	Y4	Z4	X5	Y5	Z5	X6	Y6	Z6	X7	Y7	Z7	X8	Y8	Z8	X9	Y9	Z9	X10	Y10	Z10	X11	Y11	Z11	X12	Y12	Z12	X13	Y13	Z13	X14	Y14	Z14	X15	Y15	Z15	X16	Y16	Z16	X17	Y17	Z17	X18	Y18	Z18	X19	Y19	Z19	X20	Y20	Z20	X21	Y21	Z21	X22	Y22	Z22	X23	Y23	Z23	X24	Y24	Z24	X25	Y25	Z25	X26	Y26	Z26	X27	Y27	Z27	X28	Y28	Z28	X29	Y29	Z29	X30	Y30	Z30	X31	Y31	Z31	X32	Y32	Z32	X33	Y33	Z33	X34	Y34	Z34	X35	Y35	Z35	X36	Y36	Z36	X37	Y37	Z37	X38	Y38	Z38	X39	Y39	Z39	X40	Y40	Z40	X41	Y41	Z41	X42	Y42	Z42	X43	Y43	Z43	X44	Y44	Z44	X45	Y45	Z45	X46	Y46	Z46	X47	Y47	Z47	X48	Y48	Z48	X49	Y49	Z49	X50	Y50	Z50	X51	Y51	Z51	

345	1.4333	585.23	1179.6	292.82	453.46	1433.2	433.81	479.76	1437.2	124.97	456.82	1740	279.01	507.82	1016.8	391.18	510.24	1015.3	145.58	290.09	1048.6	315.84	298.37	1056.2	226.67	426.25	933.22	464.61	423.76	932.37	82.071	423.44	1096.8	434.63	415.05	1116.2	110.09	275.25	1017.7	267.15	497.09	691.07	450.8	594.96	615.27	414.47	517.51	601.9	425.81	567.88	699.12	439.37	595.28	539.3	408.28	594.06	525.07	283.69	582.13	354.39	417.43	667.47	321.58	415.78	607.47	281.81	409.82	637.06	388.97	423.66	704.43	113.75	402.18	739.24	138.62	322.15	665.32	65.464	340.78	694.43	43.086	316.15	676.02	39.086	377.97	813.16	98.309	456.13	867.5	127.75	362.37	891.61	164.22	410.78	314.93	695.23	144.52	376.27	584.9	141.21	312.99	605.82	162.68	378.51	671.46	117.93	345.03	507.12	156.26	373.56	520.03	286.28	267.42	386.39	151.71	309.67	285.3	167.43	250.69	311.87	162.69	325.95	361.21	157.59	223.85	114.12	194.3	240.76	107.17	285.59	146.81	82.623	248.34	158.17	55.818	279.83	144.2	55.689	219.58	314.5	42.692	158.47	356.36	37.332	265.15	407.12	48.125	203.94	381.4	1487.5	283.35	324.53	1225.6	260.62
346	1.4375	590.97	1178.8	292.87	459.08	1432.5	434.13	485.09	1436.3	125.25	462.51	1739.2	279.42	513.99	1015.8	391.3	515.74	1014.7	145.69	296.06	1047.8	316.55	304.22	1055.5	227.42	432.29	931.92	464.62	428.84	931.96	82.202	429.68	1095.7	435.12	420.41	1115.7	110.5	281.05	1017	267.83	501.56	689.61	450.8	599.06	613.25	414.55	521.45	600.38	425.53	572.45	697.18	439.7	599.64	538.23	408.03	597.58	523.71	283.13	589.88	353.38	417.79	675.81	321.95	415.43	616.43	281.16	410.16	644.33	388.9	423.37	716.56	114.38	402.13	750.2	139.75	321.84	677.73	65.133	341.32	707.07	43.24	316.48	689.26	39.016	378.45	826.11	101.05	455.29	879.08	131.38	360.99	902.93	168.43	409.1	319	695.45	145.15	379.67	584.74	141.25	316.63	606.02	163.13	382.29	671.35	118.13	348.12	507.04	156.32	377.29	519.64	286.21	269.84	386.79	151.81	311.41	285.38	167.39	252.6	312.38	162.79	328.21	361.19	157.56	224.42	114.73	194.4	241.31	107.67	285.65	147.22	83.492	248.43	158.44	56.648	279.94	144.44	56.561	219.69	314.63	42.694	158.5	356.55	37.242	265.1	407.37	47.722	203.88	386.93	1486.7	283.74	330.09	1224.7	261.17
347	1.4417	596.71	1177.9	292.95	464.71	1431.7	434.47	490.41	1435.5	125.54	468.2	1738.5	279.85	520.15	1014.9	391.46	521.24	1014.1	145.81	302.04	1047	317.26	310.08	1054.9	228.18	438.36	930.64	464.68	433.96	931.53	82.34	435.9	1094.7	435.62	425.81	1115.1	110.93	286.86	1016.4	268.5	506.14	688.21	450.82	603.32	611.35	414.63	525.56	598.93	425.27	577.14	695.34	440.05	604.17	537.24	407.79	601.24	522.43	282.61	597.51	352.44	418.13	683.93	322.26	415.05	625.14	280.57	410.46	651.51	388.82	423.07	728.12	114.97	401.98	760.6	140.8	321.44	689.51	64.875	341.74	719.01	43.428	316.68	701.81	39.004	378.81	838.42	103.6	454.34	890.03	134.72	359.52	913.67	172.3	407.34	323.17	695.62	145.73	383.19	584.55	141.29	320.38	606.16	163.54	386.18	671.21	118.32	351.34	506.93	156.37	381.13	519.22	286.13	272.37	387.18	151.89	313.24	285.46	167.34	254.61	312.88	162.88	330.58	361.15	157.52	225.01	115.38	194.47	241.87	108.21	285.69	147.64	84.419	248.49	158.73	57.545	280.03	144.68	57.485	219.77	314.76	42.696	158.52	356.74	37.177	265.04	407.62	47.33	203.8	392.45	1485.9	284.15	335.65	1223.8	261.74
348	1.4458	602.46	1177.1	293.05	470.34	1431	434.84	495.72	1434.7	125.84	473.88	1737.7	280.28	526.3	1013.9	391.64	526.76	1013.5	145.96	308.04	1046.2	317.97	315.96	1054.2	228.93	444.45	929.37	464.77	439.13	931.08	82.487	442.09	1093.6	436.14	431.25	1114.6	111.39	292.69	1015.7	269.18	510.85	686.88	450.85	607.75	609.58	414.72	529.86	597.57	425.02	581.96	693.62	440.42	608.88	536.33	407.56	605.08	521.25	282.14	604.99	351.58	418.45	691.83	322.51	414.63	633.58	280.03	410.71	658.59	388.7	422.75	739.07	115.51	401.72	770.44	141.75	320.95	700.61	64.664	342.03	730.25	43.627	316.75	713.65	39.016	379.02	850.06	105.9	453.28	900.35	137.75	357.97	923.83	175.79	405.51	327.45	695.73	146.26	386.85	584.32	141.33	324.26	606.25	163.91	390.2	671.02	118.5	354.72	506.78	156.42	385.07	518.76	286.06	275.02	387.57	151.95	315.16	285.52	167.28	256.73	313.39	162.94	333.06	361.08	157.49	225.63	116.07	194.51	242.46	108.79	285.7	148.07	85.409	248.52	159.02	58.512	280.09	144.93	58.463	219.82	314.91	42.698	158.53	356.93	37.135	264.97	407.87	46.949	203.73	397.98	1485.1	284.58	341.21	1222.8	262.33
349	1.45	608.23	1176.2	293.17	475.98	1430.2	435.22	501.01	1433.8	126.15	479.55	1737	280.72	532.45	1012.9	391.86	532.28	1012.9	146.12	314.04	1045.4	318.69	321.85	1053.5	229.67	450.57	928.15	464.91	444.33	930.6	82.643	448.26	1092.5	436.69	436.74	1114	111.88	298.52	1015	269.87	515.69	685.63	450.91	612.38	607.96	414.8	534.37	596.31	424.79	586.93	692.02	440.81	613.77	535.49	407.33	609.13	520.15	281.72	612.32	350.76	418.73	699.5	322.68	414.16	641.73	279.51	410.91	665.57	388.53	422.41	749.41	115.95	401.36	779.7	142.55	320.37	711.02	64.478	342.19	740.76	43.814	316.68	724.74	39.022	379.09	861.01	107.89	452.12	910.03	140.41	356.34	933.39	178.85	403.63	331.84	695.78	146.75	390.66	584.05	141.38	328.28	606.27	164.24	394.35	670.8	118.68	358.25	506.59	156.47	389.14	518.25	285.98	277.81	387.94	152	317.18	285.58	167.23	258.96	313.9	162.99	335.66	360.99	157.46	226.28	116.8	194.54	243.06	109.41	285.7	148.52	86.465	248.52	159.31	59.552	280.12	145.19	59.502	219.86	315.05	42.701	158.52	357.12	37.117	264.91	408.11	46.581	203.65	403.52	1484.3	285.04	346.78	1221.9	262.94
350	1.4542	614.01	1175.4	293.32	481.64	1429.4	435.64	506.29	1433	126.48	485.22	1736.2	281.16	538.57	1011.9	392.11	537.81	1012.3	146.3	320.04	1044.5	319.39	327.75	1052.8	230.41	456.71	926.97	465.1	449.58	930.11	82.809	454.39	1091.5	437.24	442.26	1113.5	112.38	304.37	1014.3	270.55	520.69	684.47	451	617.21	606.5	414.88	539.1	595.14	424.6	592.05	690.56	441.19	618.86	534.71	407.11	613.42	519.15	281.35	619.49	350	418.96	706.93	322.74	413.66	649.58	279	411.04	672.43	388.31	422.05	759.11	116.28	400.9	788.39	143.2	319.71	720.72	64.296	342.21	750.52	43.969	316.46	735.08	38.995	379.01	871.27	109.54	450.87	919.07	142.68	354.66	942.36	181.45	401.72	336.35	695.76	147.19	394.63	583.74	141.43	332.43	606.23	164.53	398.64	670.53	118.84	361.94	506.36	156.53	393.32	517.72	285.92	280.74	388.3	152.04	319.3	285.62	167.18	261.31	314.41	163.02	338.39	360.88	157.44	226.97	117.58	194.54	243.69	110.07	285.68	148.99	87.593	248.49	159.62	60.67	280.13	145.47	60.607	219.87	315.2	42.708	158.51	357.31	37.121	264.84	408.36	46.225	203.56	409.06	1483.5	285.51	352.36	1221	263.56
351	1.4583	619.8	1174.6	293.49	487.3	1428.7	436.07	511.57	1432.1	126.82	490.87	1735.5	281.62	544.7	1010.9	392.38	543.35	1011.6	146.5	326.05	1043.7	320.09	333.65	1052.1	231.14	462.86	925.86	465.33	454.85	929.6	82.985	460.51	1090.5	437.81	447.81	1112.9	112.91	310.23	1013.6	271.23	525.86	683.4	451.1	622.26	605.21	414.94	544.06	594.09	424.43	597.33	689.25	441.56	624.15	534	406.88	617.97	518.25	281.04	626.5	349.26	419.14	714.12	322.68	413.13	657.13	278.49	411.1	679.18	388.02	421.67	768.16	116.45	400.35	796.49	143.68	318.98	729.71	64.103	342.09	759.52	44.075	316.1	744.63	38.915	378.78	880.82	110.81	449.54	927.48	144.53	352.94	950.74	183.55	399.79	340.98	695.67	147.57	398.77	583.39	141.5	336.73	606.12	164.78	403.08	670.22	119	365.81	506.09	156.6	397.63	517.15	285.87	283.81	388.66	152.07	321.52	285.65	167.14	263.77	314.92	163.06	341.25	360.75	157.43	227.69	118.41	194.53	244.35	110.78	285.64	149.49	88.797	248.44	159.94	61.869	280.12	145.76	61.786	219.86	315.36	42.719	158.48	357.5	37.147	264.77	408.61	45.882	203.48	414.61	1482.6	286.01	357.95	1220	264.2
352	1.4625	625.6	1173.8	293.69	492.98	1427.9	436.53	516.84	1431.3	127.17	496.52	1734.7	282.08	550.81	1010	392.68	548.9	1011	146.71	332.06	1042.9	320.78	339.56	1051.4	231.85	469.02	924.81	465.61	460.17	929.07	83.175	466.59	1089.5	438.38	453.4	1112.4	113.44	316.1	1012.8	271.9	531.21	682.42	451.23	627.53	604.08	414.98	549.27	593.14	424.3	602.79	688.1	441.9	629.63	533.35	406.64	622.8	517.45	280.79	633.33	348.56	419.24	721.07	322.49	412.56	664.36	277.97	411.07	685.82	387.64	421.27	776.57	116.46	399.71	804.01	143.95	318.18	737.98	63.888	341.85	767.76	44.119	315.61	753.41	38.768	378.4	889.67	111.68	448.13	935.25	145.94	351.19	958.54	185.14	397.87	345.73	695.51	147.89	403.08	583.01	141.57	341.18	605.93	165	407.67	669.86	119.16	369.85	505.77	156.68	402.07	516.55	285.84	287.02	389.02	152.1	323.85	285.68	167.11	266.36	315.44	163.09	344.23	360.59	157.44	228.46	119.29	194.5	245.05	111.54	285.59	150.01	90.084	248.36	160.28	63.155	280.09	146.08	63.044	219.83	315.53	42.736	158.45	357.7	37.194	264.69	408.86	45.553	203.39	420.16	1481.8	286.52	363.55	1219.1	264.85
